<svg width="107" height="20" viewBox="0 0 107 20" fill="none" xmlns="http://www.w3.org/2000/svg">
<path d="M4.96591 15.2273C3.94318 15.2273 3.0625 14.9858 2.32386 14.5028C1.58523 14.0199 1.01705 13.3546 0.619318 12.5071C0.221591 11.6596 0.0227273 10.6913 0.0227273 9.60227C0.0227273 8.49432 0.226326 7.51657 0.633523 6.66903C1.04545 5.81676 1.61837 5.15152 2.35227 4.6733C3.09091 4.19034 3.95265 3.94886 4.9375 3.94886C5.70455 3.94886 6.39583 4.09091 7.01136 4.375C7.62689 4.65909 8.13116 5.05682 8.52415 5.56818C8.91714 6.07955 9.16098 6.67614 9.25568 7.35795H7.57955C7.4517 6.8608 7.16761 6.42045 6.72727 6.03693C6.29167 5.64867 5.70455 5.45455 4.96591 5.45455C4.3125 5.45455 3.73958 5.625 3.24716 5.96591C2.75947 6.30208 2.37831 6.77794 2.10369 7.39347C1.83381 8.00426 1.69886 8.72159 1.69886 9.54545C1.69886 10.3883 1.83144 11.1222 2.09659 11.7472C2.36648 12.3722 2.74527 12.8575 3.23295 13.2031C3.72538 13.5488 4.30303 13.7216 4.96591 13.7216C5.40152 13.7216 5.79688 13.6458 6.15199 13.4943C6.5071 13.3428 6.80777 13.125 7.05398 12.8409C7.30019 12.5568 7.47538 12.2159 7.57955 11.8182H9.25568C9.16098 12.4621 8.92661 13.0421 8.55256 13.5582C8.18324 14.0696 7.69318 14.4768 7.08239 14.7798C6.47633 15.0781 5.77083 15.2273 4.96591 15.2273ZM16.1378 15.2273C15.1529 15.2273 14.2888 14.9929 13.5455 14.5241C12.8068 14.0554 12.2292 13.3996 11.8125 12.5568C11.4006 11.714 11.1946 10.7292 11.1946 9.60227C11.1946 8.46591 11.4006 7.47396 11.8125 6.62642C12.2292 5.77888 12.8068 5.12074 13.5455 4.65199C14.2888 4.18324 15.1529 3.94886 16.1378 3.94886C17.1226 3.94886 17.9844 4.18324 18.723 4.65199C19.4664 5.12074 20.044 5.77888 20.456 6.62642C20.8726 7.47396 21.081 8.46591 21.081 9.60227C21.081 10.7292 20.8726 11.714 20.456 12.5568C20.044 13.3996 19.4664 14.0554 18.723 14.5241C17.9844 14.9929 17.1226 15.2273 16.1378 15.2273ZM16.1378 13.7216C16.8859 13.7216 17.5014 13.5298 17.9844 13.1463C18.4673 12.7628 18.8248 12.2585 19.0568 11.6335C19.2888 11.0085 19.4048 10.3314 19.4048 9.60227C19.4048 8.87311 19.2888 8.19366 19.0568 7.56392C18.8248 6.93419 18.4673 6.42519 17.9844 6.03693C17.5014 5.64867 16.8859 5.45455 16.1378 5.45455C15.3897 5.45455 14.7741 5.64867 14.2912 6.03693C13.8082 6.42519 13.4508 6.93419 13.2188 7.56392C12.9867 8.19366 12.8707 8.87311 12.8707 9.60227C12.8707 10.3314 12.9867 11.0085 13.2188 11.6335C13.4508 12.2585 13.8082 12.7628 14.2912 13.1463C14.7741 13.5298 15.3897 13.7216 16.1378 13.7216ZM28.0714 15.2273C27.0865 15.2273 26.2224 14.9929 25.479 14.5241C24.7404 14.0554 24.1628 13.3996 23.7461 12.5568C23.3342 11.714 23.1282 10.7292 23.1282 9.60227C23.1282 8.46591 23.3342 7.47396 23.7461 6.62642C24.1628 5.77888 24.7404 5.12074 25.479 4.65199C26.2224 4.18324 27.0865 3.94886 28.0714 3.94886C29.0562 3.94886 29.918 4.18324 30.6566 4.65199C31.4 5.12074 31.9776 5.77888 32.3896 6.62642C32.8062 7.47396 33.0146 8.46591 33.0146 9.60227C33.0146 10.7292 32.8062 11.714 32.3896 12.5568C31.9776 13.3996 31.4 14.0554 30.6566 14.5241C29.918 14.9929 29.0562 15.2273 28.0714 15.2273ZM28.0714 13.7216C28.8195 13.7216 29.435 13.5298 29.918 13.1463C30.4009 12.7628 30.7584 12.2585 30.9904 11.6335C31.2224 11.0085 31.3384 10.3314 31.3384 9.60227C31.3384 8.87311 31.2224 8.19366 30.9904 7.56392C30.7584 6.93419 30.4009 6.42519 29.918 6.03693C29.435 5.64867 28.8195 5.45455 28.0714 5.45455C27.3233 5.45455 26.7077 5.64867 26.2248 6.03693C25.7418 6.42519 25.3844 6.93419 25.1523 7.56392C24.9203 8.19366 24.8043 8.87311 24.8043 9.60227C24.8043 10.3314 24.9203 11.0085 25.1523 11.6335C25.3844 12.2585 25.7418 12.7628 26.2248 13.1463C26.7077 13.5298 27.3233 13.7216 28.0714 13.7216ZM37.2493 0.454545V15H35.5732V0.454545H37.2493ZM41.8817 11.0227L41.8533 8.94886H42.1942L46.967 4.09091H49.0408L43.9556 9.23295H43.8136L41.8817 11.0227ZM40.3192 15V0.454545H41.9954V15H40.3192ZM47.2511 15L42.9897 9.60227L44.1829 8.4375L49.3817 15H47.2511ZM54.4084 15.2557C53.7171 15.2557 53.0897 15.1255 52.5263 14.8651C51.9628 14.5999 51.5154 14.2188 51.1839 13.7216C50.8525 13.2197 50.6868 12.6136 50.6868 11.9034C50.6868 11.2784 50.8099 10.7718 51.0561 10.3835C51.3023 9.99053 51.6314 9.68276 52.0433 9.46023C52.4553 9.23769 52.9098 9.07197 53.407 8.96307C53.9089 8.84943 54.4131 8.75947 54.9197 8.69318C55.5826 8.60795 56.12 8.54403 56.532 8.50142C56.9486 8.45407 57.2517 8.37595 57.4411 8.26705C57.6352 8.15814 57.7322 7.96875 57.7322 7.69886V7.64205C57.7322 6.94129 57.5405 6.39678 57.157 6.00852C56.7782 5.62027 56.2029 5.42614 55.4311 5.42614C54.6309 5.42614 54.0036 5.60133 53.549 5.9517C53.0945 6.30208 52.7749 6.67614 52.5902 7.07386L50.9993 6.50568C51.2834 5.8428 51.6622 5.3267 52.1357 4.95739C52.6139 4.58333 53.1347 4.32292 53.6982 4.17614C54.2663 4.02462 54.825 3.94886 55.3743 3.94886C55.7247 3.94886 56.1271 3.99148 56.5817 4.0767C57.041 4.1572 57.4837 4.32528 57.9098 4.58097C58.3407 4.83665 58.6982 5.22254 58.9822 5.73864C59.2663 6.25473 59.4084 6.94602 59.4084 7.8125V15H57.7322V13.5227H57.647C57.5334 13.7595 57.344 14.0128 57.0788 14.2827C56.8137 14.5526 56.4609 14.7822 56.0206 14.9716C55.5803 15.161 55.0429 15.2557 54.4084 15.2557ZM54.6641 13.75C55.3269 13.75 55.8857 13.6198 56.3402 13.3594C56.7995 13.099 57.1451 12.7628 57.3771 12.3509C57.6139 11.9389 57.7322 11.5057 57.7322 11.0511V9.51705C57.6612 9.60227 57.505 9.6804 57.2635 9.75142C57.0268 9.81771 56.7521 9.87689 56.4396 9.92898C56.1319 9.97633 55.8312 10.0189 55.5376 10.0568C55.2488 10.09 55.0144 10.1184 54.8345 10.142C54.3989 10.1989 53.9917 10.2912 53.6129 10.419C53.2389 10.5421 52.9358 10.7292 52.7038 10.9801C52.4766 11.2263 52.3629 11.5625 52.3629 11.9886C52.3629 12.571 52.5784 13.0114 53.0092 13.3097C53.4448 13.6032 53.9964 13.75 54.6641 13.75ZM62.4677 19.0909V4.09091H64.087V5.82386H64.2859C64.409 5.63447 64.5794 5.39299 64.7972 5.09943C65.0198 4.80114 65.337 4.53598 65.7489 4.30398C66.1656 4.06723 66.729 3.94886 67.4393 3.94886C68.3578 3.94886 69.1675 4.1785 69.8683 4.63778C70.569 5.09706 71.1159 5.74811 71.5089 6.59091C71.9019 7.43371 72.0984 8.42803 72.0984 9.57386C72.0984 10.7292 71.9019 11.7306 71.5089 12.5781C71.1159 13.4209 70.5714 14.0743 69.8754 14.5384C69.1793 14.9976 68.3768 15.2273 67.4677 15.2273C66.7669 15.2273 66.2058 15.1113 65.7844 14.8793C65.363 14.6425 65.0387 14.375 64.8114 14.0767C64.5842 13.7737 64.409 13.5227 64.2859 13.3239H64.1438V19.0909H62.4677ZM64.1154 9.54545C64.1154 10.3693 64.2362 11.0961 64.4776 11.7259C64.7191 12.3509 65.0719 12.8409 65.5359 13.196C65.9999 13.5464 66.5681 13.7216 67.2404 13.7216C67.9412 13.7216 68.5259 13.5369 68.9947 13.1676C69.4682 12.7936 69.8233 12.2917 70.06 11.6619C70.3015 11.0275 70.4222 10.322 70.4222 9.54545C70.4222 8.77841 70.3039 8.08712 70.0671 7.47159C69.8351 6.85133 69.4824 6.36127 69.0089 6.00142C68.5401 5.63684 67.9506 5.45455 67.2404 5.45455C66.5586 5.45455 65.9857 5.62737 65.5217 5.97301C65.0576 6.31392 64.7073 6.79214 64.4705 7.40767C64.2338 8.01847 64.1154 8.73106 64.1154 9.54545ZM77.8654 15.2557C77.1741 15.2557 76.5468 15.1255 75.9833 14.8651C75.4199 14.5999 74.9724 14.2188 74.641 13.7216C74.3095 13.2197 74.1438 12.6136 74.1438 11.9034C74.1438 11.2784 74.2669 10.7718 74.5131 10.3835C74.7594 9.99053 75.0884 9.68276 75.5004 9.46023C75.9123 9.23769 76.3668 9.07197 76.864 8.96307C77.3659 8.84943 77.8701 8.75947 78.3768 8.69318C79.0397 8.60795 79.5771 8.54403 79.989 8.50142C80.4057 8.45407 80.7087 8.37595 80.8981 8.26705C81.0922 8.15814 81.1893 7.96875 81.1893 7.69886V7.64205C81.1893 6.94129 80.9975 6.39678 80.614 6.00852C80.2352 5.62027 79.6599 5.42614 78.8881 5.42614C78.0879 5.42614 77.4606 5.60133 77.006 5.9517C76.5515 6.30208 76.2319 6.67614 76.0472 7.07386L74.4563 6.50568C74.7404 5.8428 75.1192 5.3267 75.5927 4.95739C76.0709 4.58333 76.5917 4.32292 77.1552 4.17614C77.7234 4.02462 78.2821 3.94886 78.8313 3.94886C79.1817 3.94886 79.5842 3.99148 80.0387 4.0767C80.498 4.1572 80.9407 4.32528 81.3668 4.58097C81.7977 4.83665 82.1552 5.22254 82.4393 5.73864C82.7234 6.25473 82.8654 6.94602 82.8654 7.8125V15H81.1893V13.5227H81.104C80.9904 13.7595 80.801 14.0128 80.5359 14.2827C80.2707 14.5526 79.918 14.7822 79.4776 14.9716C79.0373 15.161 78.4999 15.2557 77.8654 15.2557ZM78.1211 13.75C78.784 13.75 79.3427 13.6198 79.7972 13.3594C80.2565 13.099 80.6022 12.7628 80.8342 12.3509C81.0709 11.9389 81.1893 11.5057 81.1893 11.0511V9.51705C81.1183 9.60227 80.962 9.6804 80.7205 9.75142C80.4838 9.81771 80.2092 9.87689 79.8967 9.92898C79.5889 9.97633 79.2882 10.0189 78.9947 10.0568C78.7058 10.09 78.4715 10.1184 78.2915 10.142C77.8559 10.1989 77.4487 10.2912 77.07 10.419C76.6959 10.5421 76.3929 10.7292 76.1609 10.9801C75.9336 11.2263 75.82 11.5625 75.82 11.9886C75.82 12.571 76.0354 13.0114 76.4663 13.3097C76.9019 13.6032 77.4535 13.75 78.1211 13.75ZM90.044 15.2273C89.1349 15.2273 88.3324 14.9976 87.6364 14.5384C86.9403 14.0743 86.3958 13.4209 86.0028 12.5781C85.6098 11.7306 85.4134 10.7292 85.4134 9.57386C85.4134 8.42803 85.6098 7.43371 86.0028 6.59091C86.3958 5.74811 86.9427 5.09706 87.6435 4.63778C88.3442 4.1785 89.1539 3.94886 90.0724 3.94886C90.7827 3.94886 91.3438 4.06723 91.7557 4.30398C92.1723 4.53598 92.4896 4.80114 92.7074 5.09943C92.9299 5.39299 93.1027 5.63447 93.2259 5.82386H93.3679V0.454545H95.044V15H93.4247V13.3239H93.2259C93.1027 13.5227 92.9276 13.7737 92.7003 14.0767C92.473 14.375 92.1487 14.6425 91.7273 14.8793C91.3059 15.1113 90.7448 15.2273 90.044 15.2273ZM90.2713 13.7216C90.9437 13.7216 91.5118 13.5464 91.9759 13.196C92.4399 12.8409 92.7926 12.3509 93.0341 11.7259C93.2756 11.0961 93.3963 10.3693 93.3963 9.54545C93.3963 8.73106 93.2779 8.01847 93.0412 7.40767C92.8045 6.79214 92.4541 6.31392 91.9901 5.97301C91.526 5.62737 90.9531 5.45455 90.2713 5.45455C89.5611 5.45455 88.9692 5.63684 88.4957 6.00142C88.027 6.36127 87.6742 6.85133 87.4375 7.47159C87.2055 8.08712 87.0895 8.77841 87.0895 9.54545C87.0895 10.322 87.2079 11.0275 87.4446 11.6619C87.6861 12.2917 88.0412 12.7936 88.5099 13.1676C88.9834 13.5369 89.5705 13.7216 90.2713 13.7216ZM101.557 15.2557C100.866 15.2557 100.238 15.1255 99.6747 14.8651C99.1113 14.5999 98.6638 14.2188 98.3324 13.7216C98.0009 13.2197 97.8352 12.6136 97.8352 11.9034C97.8352 11.2784 97.9583 10.7718 98.2045 10.3835C98.4508 9.99053 98.7798 9.68276 99.1918 9.46023C99.6037 9.23769 100.058 9.07197 100.555 8.96307C101.057 8.84943 101.562 8.75947 102.068 8.69318C102.731 8.60795 103.268 8.54403 103.68 8.50142C104.097 8.45407 104.4 8.37595 104.589 8.26705C104.784 8.15814 104.881 7.96875 104.881 7.69886V7.64205C104.881 6.94129 104.689 6.39678 104.305 6.00852C103.927 5.62027 103.351 5.42614 102.58 5.42614C101.779 5.42614 101.152 5.60133 100.697 5.9517C100.243 6.30208 99.9233 6.67614 99.7386 7.07386L98.1477 6.50568C98.4318 5.8428 98.8106 5.3267 99.2841 4.95739C99.7623 4.58333 100.283 4.32292 100.847 4.17614C101.415 4.02462 101.973 3.94886 102.523 3.94886C102.873 3.94886 103.276 3.99148 103.73 4.0767C104.189 4.1572 104.632 4.32528 105.058 4.58097C105.489 4.83665 105.847 5.22254 106.131 5.73864C106.415 6.25473 106.557 6.94602 106.557 7.8125V15H104.881V13.5227H104.795C104.682 13.7595 104.492 14.0128 104.227 14.2827C103.962 14.5526 103.609 14.7822 103.169 14.9716C102.729 15.161 102.191 15.2557 101.557 15.2557ZM101.812 13.75C102.475 13.75 103.034 13.6198 103.489 13.3594C103.948 13.099 104.294 12.7628 104.526 12.3509C104.762 11.9389 104.881 11.5057 104.881 11.0511V9.51705C104.81 9.60227 104.653 9.6804 104.412 9.75142C104.175 9.81771 103.901 9.87689 103.588 9.92898C103.28 9.97633 102.98 10.0189 102.686 10.0568C102.397 10.09 102.163 10.1184 101.983 10.142C101.547 10.1989 101.14 10.2912 100.761 10.419C100.387 10.5421 100.084 10.7292 99.8523 10.9801C99.625 11.2263 99.5114 11.5625 99.5114 11.9886C99.5114 12.571 99.7268 13.0114 100.158 13.3097C100.593 13.6032 101.145 13.75 101.812 13.75Z" fill="#F86F15"/>
</svg>
